# xmcd
#
# Track frame offsets: 
#        150
#        10313
#        22313
#        34761
#        45754
#        59429
#        75062
#        87308
#        102133
#        115187
#        127759
#        141619
#
# Disc length: 2078 seconds
#
# Revision: 0
# Processed by: cddbd v1.5.2PL0 Copyright (c) Steve Scherf et al.
# Submitted via: ExactAudioCopy v1.0b1
#
DISCID=8f081c0c
DTITLE=Diddley, Bo - Go
DYEAR=1959
DGENRE=Blues
TTITLE0=Crackin' up
TTITLE1=I'm sorry
TTITLE2=Bo's guitar
TTITLE3=Willie and Lillie
TTITLE4=You don't love me
TTITLE5=Say man
TTITLE6=The great grandfather
TTITLE7=Oh yea
TTITLE8=Don't let it go
TTITLE9=Little girl
TTITLE10=Dearest darling
TTITLE11=The clock strikes twelve
EXTD=
EXTT0=
EXTT1=
EXTT2=
EXTT3=
EXTT4=
EXTT5=
EXTT6=
EXTT7=
EXTT8=
EXTT9=
EXTT10=
EXTT11=
PLAYORDER=
